<svg width="24" height="19" viewBox="0 0 24 19" fill="none" xmlns="http://www.w3.org/2000/svg">
<g clip-path="url(#clip0_205_253)">
<path d="M20.3303 1.5227C18.7535 0.801102 17.0889 0.289177 15.3789 0C15.1449 0.418107 14.9332 0.848283 14.7447 1.28873C12.9233 1.01438 11.071 1.01438 9.24963 1.28873C9.06097 0.848328 8.84926 0.418157 8.61537 0C6.90435 0.291619 5.23861 0.804759 3.6602 1.52647C0.526645 6.16061 -0.322812 10.6796 0.101917 15.1345C1.937 16.4898 3.99099 17.5205 6.17459 18.1818C6.66628 17.5208 7.10135 16.8196 7.47521 16.0855C6.76512 15.8204 6.07977 15.4934 5.42707 15.1081C5.59885 14.9836 5.76685 14.8553 5.92919 14.7307C7.82839 15.6235 9.90126 16.0864 12 16.0864C14.0987 16.0864 16.1716 15.6235 18.0708 14.7307C18.235 14.8647 18.403 14.993 18.5729 15.1081C17.9189 15.494 17.2323 15.8217 16.521 16.0874C16.8944 16.8211 17.3295 17.5218 17.8216 18.1818C20.0071 17.5231 22.0626 16.4929 23.898 15.1364C24.3964 9.97019 23.0467 5.49266 20.3303 1.5227ZM8.0132 12.3948C6.82962 12.3948 5.8518 11.3212 5.8518 10.0004C5.8518 8.67957 6.79564 7.59651 8.00942 7.59651C9.2232 7.59651 10.1935 8.67957 10.1727 10.0004C10.1519 11.3212 9.21943 12.3948 8.0132 12.3948ZM15.9868 12.3948C14.8013 12.3948 13.8273 11.3212 13.8273 10.0004C13.8273 8.67957 14.7711 7.59651 15.9868 7.59651C17.2024 7.59651 18.1652 8.67957 18.1444 10.0004C18.1236 11.3212 17.193 12.3948 15.9868 12.3948Z" fill="#D1D1D1"/>
</g>
<defs>
<clipPath id="clip0_205_253">
<rect width="24" height="18.1818" fill="white"/>
</clipPath>
</defs>
</svg>
