<svg width="115" height="115" viewBox="0 0 115 115" fill="none" xmlns="http://www.w3.org/2000/svg">
<path d="M64.3599 21.8571C65.8843 22.4209 67.4717 23.1063 68.7013 23.7368C78.8873 28.9598 86.987 39.4722 85.1398 51.1868C84.9515 52.3805 85.4846 53.5962 86.5644 54.1499C87.9833 54.8774 89.7419 54.1884 90.0121 52.6235C91.8397 42.0398 85.0824 26.7941 72.2849 20.2321C70.316 19.2225 67.8172 18.0181 65.5905 17.2387C64.5568 16.8769 63.4411 17.3793 62.9291 18.3452C62.2207 19.6816 62.9389 21.3316 64.3599 21.8571Z" fill="url(#paint0_linear_9_14)"/>
<path d="M58.5094 15.3693C59.8925 15.4544 60.9424 16.6445 60.8544 18.0274C60.7664 19.4103 59.5738 20.4624 58.1907 20.3772L55.0861 20.1861C53.703 20.1009 52.6531 18.9108 52.7411 17.5279C52.8292 16.145 54.0217 15.093 55.4048 15.1781L58.5094 15.3693Z" fill="url(#paint1_linear_9_14)"/>
<path d="M53.79 69.7402C56.7197 70.9609 60.5771 71.6445 64.5078 71.6445C72.6865 71.6445 77.2764 68.1777 77.2764 62.0254C77.2764 58.1436 74.5176 54.6768 69.6348 52.1377L64.9473 49.7207C62.8721 48.6221 61.7002 47.2305 61.7002 45.6924C61.7002 43.3975 63.3603 42.1279 66.2412 42.1279C68.3408 42.1279 70.6846 43.3242 72.9307 45.4727L77.374 40.3701C74.3955 37.5381 70.4648 36 66.2168 36C58.8926 36 54.7178 39.4668 54.7178 45.5215C54.7178 49.8184 57.5498 53.4805 62.457 55.873L67.4375 58.29C69.2441 59.1445 70.2939 60.4629 70.2939 61.9033C70.2939 64.2227 68.3652 65.4922 64.8984 65.4922C61.8955 65.4922 58.2334 64.6621 54.6689 63.1484L53.79 69.7402Z" fill="url(#paint2_linear_9_14)"/>
<path fill-rule="evenodd" clip-rule="evenodd" d="M28 36.4883V71.1562H41.6963C48.6543 71.1562 52.6094 67.6894 52.6094 61.6348C52.6094 56.2881 49.1914 53.2363 43.1855 53.2363H42.0625V52.4307C47.2383 52.2109 50.168 49.5742 50.168 45.082C50.168 39.5889 46.0176 36.4883 38.7178 36.4883H28ZM40.2803 65.2236H34.4453V55.8242H39.9385C43.6982 55.8242 45.8467 57.5332 45.8467 60.4873C45.8467 63.4902 43.7959 65.2236 40.2803 65.2236ZM38.8154 49.8672H34.4453V42.4209H38.4736C41.7451 42.4209 43.4053 43.6172 43.4053 45.9609C43.4053 48.5488 41.8428 49.8672 38.8154 49.8672Z" fill="url(#paint3_linear_9_14)"/>
<path fill-rule="evenodd" clip-rule="evenodd" d="M52.5473 103.365C64.5542 103.365 75.6205 99.4046 84.4693 92.739L104.703 113.213C107.011 115.549 110.808 115.602 113.183 113.331C115.558 111.061 115.612 107.327 113.303 104.991L93.1021 84.5496C100.594 75.617 105.095 64.1668 105.095 51.6827C105.095 23.1391 81.5683 0 52.5473 0C23.5262 0 0 23.1391 0 51.6827C0 80.2263 23.5262 103.365 52.5473 103.365ZM53.1184 92.13C75.5151 92.13 93.6712 74.2727 93.6712 52.2445C93.6712 30.2163 75.5151 12.3589 53.1184 12.3589C30.7218 12.3589 12.5657 30.2163 12.5657 52.2445C12.5657 74.2727 30.7218 92.13 53.1184 92.13Z" fill="url(#paint4_linear_9_14)"/>
<defs>
<linearGradient id="paint0_linear_9_14" x1="10" y1="5.5" x2="115" y2="117" gradientUnits="userSpaceOnUse">
<stop stop-color="#2DA6FD"/>
<stop offset="1" stop-color="#09EB99"/>
</linearGradient>
<linearGradient id="paint1_linear_9_14" x1="10" y1="5.5" x2="115" y2="117" gradientUnits="userSpaceOnUse">
<stop stop-color="#2DA6FD"/>
<stop offset="1" stop-color="#09EB99"/>
</linearGradient>
<linearGradient id="paint2_linear_9_14" x1="10" y1="5.5" x2="115" y2="117" gradientUnits="userSpaceOnUse">
<stop stop-color="#2DA6FD"/>
<stop offset="1" stop-color="#09EB99"/>
</linearGradient>
<linearGradient id="paint3_linear_9_14" x1="10" y1="5.5" x2="115" y2="117" gradientUnits="userSpaceOnUse">
<stop stop-color="#2DA6FD"/>
<stop offset="1" stop-color="#09EB99"/>
</linearGradient>
<linearGradient id="paint4_linear_9_14" x1="10" y1="5.5" x2="115" y2="117" gradientUnits="userSpaceOnUse">
<stop stop-color="#2DA6FD"/>
<stop offset="1" stop-color="#09EB99"/>
</linearGradient>
</defs>
</svg>
