<svg width="104" height="104" viewBox="0 0 104 104" fill="none" xmlns="http://www.w3.org/2000/svg">
<path d="M58.2037 19.7664C59.5823 20.2763 61.0179 20.8961 62.1298 21.4663C71.3416 26.1897 78.6665 35.6966 76.996 46.2907C76.8257 47.3702 77.3078 48.4696 78.2843 48.9704C79.5675 49.6283 81.1579 49.0052 81.4022 47.5899C83.0551 38.0186 76.9441 24.2312 65.3707 18.2969C63.5902 17.3839 61.3303 16.2946 59.3166 15.5898C58.3818 15.2626 57.3728 15.7169 56.9098 16.5904C56.2691 17.799 56.9187 19.2911 58.2037 19.7664Z" fill="#D9D9D9"/>
<path d="M52.9129 13.8992C54.1637 13.9762 55.1131 15.0524 55.0335 16.3031C54.9539 17.5537 53.8754 18.5051 52.6246 18.4281L49.817 18.2552C48.5662 18.1782 47.6167 17.102 47.6963 15.8513C47.7759 14.6007 48.8544 13.6493 50.1052 13.7263L52.9129 13.8992Z" fill="#D9D9D9"/>
<path d="M48.6449 63.0694C51.2944 64.1734 54.7828 64.7916 58.3375 64.7916C65.7339 64.7916 69.8847 61.6564 69.8847 56.0925C69.8847 52.582 67.3898 49.4468 62.974 47.1506L58.7349 44.9648C56.8582 43.9713 55.7984 42.7128 55.7984 41.3218C55.7984 39.2464 57.2998 38.0983 59.9051 38.0983C61.8039 38.0983 63.9234 39.1802 65.9547 41.1231L69.973 36.5086C67.2794 33.9475 63.7247 32.5565 59.883 32.5565C53.2594 32.5565 49.4839 35.6917 49.4839 41.1673C49.4839 45.0531 52.045 48.3649 56.4829 50.5287L60.987 52.7145C62.6208 53.4872 63.5702 54.6795 63.5702 55.9821C63.5702 58.0796 61.8259 59.2277 58.6908 59.2277C55.9751 59.2277 52.6632 58.477 49.4397 57.1081L48.6449 63.0694Z" fill="#D9D9D9"/>
<path fill-rule="evenodd" clip-rule="evenodd" d="M25.3217 32.9981V64.35H37.7079C44.0004 64.35 47.5772 61.2148 47.5772 55.7393C47.5772 50.904 44.4861 48.1442 39.0548 48.1442H38.0391V47.4156C42.7198 47.2168 45.3693 44.8323 45.3693 40.7698C45.3693 35.8021 41.6159 32.9981 35.0143 32.9981H25.3217ZM36.4274 58.9848H31.1505V50.4845H36.1183C39.5184 50.4845 41.4613 52.03 41.4613 54.7016C41.4613 57.4173 39.6067 58.9848 36.4274 58.9848ZM35.1026 45.0973H31.1505V38.3632H34.7935C37.7521 38.3632 39.2535 39.4451 39.2535 41.5647C39.2535 43.905 37.8404 45.0973 35.1026 45.0973Z" fill="#D9D9D9"/>
<path fill-rule="evenodd" clip-rule="evenodd" d="M47.521 93.4783C58.3794 93.4783 68.3872 89.8963 76.3896 83.8683L94.6879 102.384C96.7755 104.496 100.209 104.544 102.357 102.491C104.505 100.438 104.553 97.0606 102.466 94.9481L84.1966 76.4623C90.9721 68.3841 95.042 58.0291 95.042 46.7391C95.042 20.9258 73.7661 0 47.521 0C21.2759 0 0 20.9258 0 46.7391C0 72.5524 21.2759 93.4783 47.521 93.4783ZM48.0375 83.3176C68.2919 83.3176 84.7114 67.1683 84.7114 47.2472C84.7114 27.326 68.2919 11.1767 48.0375 11.1767C27.7832 11.1767 11.3637 27.326 11.3637 47.2472C11.3637 67.1683 27.7832 83.3176 48.0375 83.3176Z" fill="#D9D9D9"/>
</svg>
