<svg width="115" height="115" viewBox="0 0 115 115" fill="none" xmlns="http://www.w3.org/2000/svg">
<path fill-rule="evenodd" clip-rule="evenodd" d="M27.0986 37.034V73.0887H41.3427C48.579 73.0887 52.6923 69.4832 52.6923 63.1864C52.6923 57.6258 49.1376 54.452 42.8915 54.452H41.7236V53.6141C47.1064 53.3856 50.1533 50.6434 50.1533 45.9715C50.1533 40.2586 45.8369 37.034 38.2451 37.034H27.0986ZM39.8701 66.9188H33.8017V57.1434H39.5146C43.4247 57.1434 45.6591 58.9207 45.6591 61.993C45.6591 65.116 43.5263 66.9188 39.8701 66.9188ZM38.3466 50.9481H33.8017V43.2039H37.9911C41.3935 43.2039 43.1201 44.4481 43.1201 46.8856C43.1201 49.577 41.4951 50.9481 38.3466 50.9481Z" fill="#D9D9D9"/>
<path d="M53.1402 71.616C56.1871 72.8856 60.1988 73.5965 64.2867 73.5965C72.7926 73.5965 77.566 69.991 77.566 63.5926C77.566 59.5555 74.6969 55.95 69.6187 53.3094L64.7437 50.7957C62.5855 49.6532 61.3668 48.2059 61.3668 46.6063C61.3668 44.2196 63.0933 42.8992 66.0894 42.8992C68.273 42.8992 70.7105 44.1434 73.0465 46.3778L77.6676 41.0711C74.5699 38.1258 70.482 36.5262 66.064 36.5262C58.4469 36.5262 54.1051 40.1317 54.1051 46.4285C54.1051 50.8973 57.0504 54.7059 62.1539 57.1942L67.3336 59.7078C69.2125 60.5965 70.3043 61.9676 70.3043 63.4657C70.3043 65.8778 68.2984 67.1981 64.6929 67.1981C61.5699 67.1981 57.7613 66.3348 54.0543 64.7606L53.1402 71.616Z" fill="#D9D9D9"/>
<path d="M68.7013 23.7368C67.4717 23.1063 65.8843 22.4209 64.3599 21.8571C62.9389 21.3316 62.2207 19.6816 62.9291 18.3452C63.4411 17.3793 64.5568 16.8769 65.5905 17.2387C67.8172 18.0181 70.316 19.2225 72.285 20.2321C85.0824 26.7941 91.8398 42.0398 90.0121 52.6235C89.7419 54.1884 87.9833 54.8774 86.5644 54.1499C85.4846 53.5962 84.9515 52.3805 85.1398 51.1868C86.987 39.4722 78.8873 28.9598 68.7013 23.7368Z" fill="#D9D9D9"/>
<path d="M60.8544 18.0274C60.9424 16.6445 59.8925 15.4544 58.5094 15.3693L55.4048 15.1781C54.0217 15.093 52.8292 16.145 52.7411 17.5279C52.6531 18.9108 53.703 20.1009 55.0861 20.1861L58.1907 20.3772C59.5738 20.4624 60.7664 19.4103 60.8544 18.0274Z" fill="#D9D9D9"/>
<path fill-rule="evenodd" clip-rule="evenodd" d="M52.5473 103.365C64.5542 103.365 75.6205 99.4046 84.4693 92.739L104.703 113.213C107.011 115.549 110.808 115.602 113.183 113.331C115.558 111.061 115.612 107.327 113.303 104.991L93.1021 84.5497C100.594 75.617 105.095 64.1668 105.095 51.6827C105.095 23.1391 81.5683 0 52.5473 0C23.5262 0 0 23.1391 0 51.6827C0 80.2263 23.5262 103.365 52.5473 103.365ZM53.1184 92.13C75.5151 92.13 93.6712 74.2727 93.6712 52.2445C93.6712 30.2163 75.5151 12.3589 53.1184 12.3589C30.7218 12.3589 12.5657 30.2163 12.5657 52.2445C12.5657 74.2727 30.7218 92.13 53.1184 92.13Z" fill="#D9D9D9"/>
</svg>
